<svg id="logo-svg" width="450" height="450" viewBox="0 0 450 450" xmlns="http://www.w3.org/2000/svg"><line x1="405" y1="225" x2="352.27922061357856" y2="352.27922061357856" stroke="#2196F3" stroke-opacity="1" stroke-width="2"/><line x1="405" y1="225" x2="225" y2="405" stroke="#2196F3" stroke-opacity="1" stroke-width="2"/><line x1="405" y1="225" x2="97.72077938642146" y2="352.27922061357856" stroke="#2196F3" stroke-opacity="1" stroke-width="2"/><line x1="405" y1="225" x2="97.72077938642141" y2="97.72077938642146" stroke="#2196F3" stroke-opacity="1" stroke-width="2"/><line x1="405" y1="225" x2="224.99999999999997" y2="45" stroke="#2196F3" stroke-opacity="1" stroke-width="2"/><line x1="405" y1="225" x2="352.2792206135785" y2="97.72077938642141" stroke="#2196F3" stroke-opacity="1" stroke-width="2"/><line x1="352.27922061357856" y1="352.27922061357856" x2="225" y2="405" stroke="#2196F3" stroke-opacity="1" stroke-width="2"/><line x1="352.27922061357856" y1="352.27922061357856" x2="97.72077938642146" y2="352.27922061357856" stroke="#2196F3" stroke-opacity="1" stroke-width="2"/><line x1="352.27922061357856" y1="352.27922061357856" x2="45" y2="225.00000000000003" stroke="#2196F3" stroke-opacity="1" stroke-width="2"/><line x1="352.27922061357856" y1="352.27922061357856" x2="97.72077938642141" y2="97.72077938642146" stroke="#2196F3" stroke-opacity="1" stroke-width="2"/><line x1="352.27922061357856" y1="352.27922061357856" x2="224.99999999999997" y2="45" stroke="#2196F3" stroke-opacity="1" stroke-width="2"/><line x1="352.27922061357856" y1="352.27922061357856" x2="352.2792206135785" y2="97.72077938642141" stroke="#2196F3" stroke-opacity="1" stroke-width="2"/><line x1="225" y1="405" x2="97.72077938642146" y2="352.27922061357856" stroke="#2196F3" stroke-opacity="1" stroke-width="2"/><line x1="225" y1="405" x2="45" y2="225.00000000000003" stroke="#2196F3" stroke-opacity="1" stroke-width="2"/><line x1="225" y1="405" x2="97.72077938642141" y2="97.72077938642146" stroke="#2196F3" stroke-opacity="1" stroke-width="2"/><line x1="225" y1="405" x2="352.2792206135785" y2="97.72077938642141" stroke="#2196F3" stroke-opacity="1" stroke-width="2"/><line x1="97.72077938642146" y1="352.27922061357856" x2="45" y2="225.00000000000003" stroke="#2196F3" stroke-opacity="1" stroke-width="2"/><line x1="97.72077938642146" y1="352.27922061357856" x2="97.72077938642141" y2="97.72077938642146" stroke="#2196F3" stroke-opacity="1" stroke-width="2"/><line x1="97.72077938642146" y1="352.27922061357856" x2="224.99999999999997" y2="45" stroke="#2196F3" stroke-opacity="1" stroke-width="2"/><line x1="97.72077938642146" y1="352.27922061357856" x2="352.2792206135785" y2="97.72077938642141" stroke="#2196F3" stroke-opacity="1" stroke-width="2"/><line x1="45" y1="225.00000000000003" x2="97.72077938642141" y2="97.72077938642146" stroke="#2196F3" stroke-opacity="1" stroke-width="2"/><line x1="45" y1="225.00000000000003" x2="224.99999999999997" y2="45" stroke="#2196F3" stroke-opacity="1" stroke-width="2"/><line x1="45" y1="225.00000000000003" x2="352.2792206135785" y2="97.72077938642141" stroke="#2196F3" stroke-opacity="1" stroke-width="2"/><line x1="97.72077938642141" y1="97.72077938642146" x2="224.99999999999997" y2="45" stroke="#2196F3" stroke-opacity="1" stroke-width="2"/><line x1="97.72077938642141" y1="97.72077938642146" x2="352.2792206135785" y2="97.72077938642141" stroke="#2196F3" stroke-opacity="1" stroke-width="2"/><line x1="224.99999999999997" y1="45" x2="352.2792206135785" y2="97.72077938642141" stroke="#2196F3" stroke-opacity="1" stroke-width="2"/><circle cx="405" cy="225" r="8" fill="#2196F3"/><circle cx="352.27922061357856" cy="352.27922061357856" r="8" fill="#2196F3"/><circle cx="225" cy="405" r="8" fill="#2196F3"/><circle cx="97.72077938642146" cy="352.27922061357856" r="8" fill="#2196F3"/><circle cx="45" cy="225.00000000000003" r="8" fill="#2196F3"/><circle cx="97.72077938642141" cy="97.72077938642146" r="8" fill="#2196F3"/><circle cx="224.99999999999997" cy="45" r="8" fill="#2196F3"/><circle cx="352.2792206135785" cy="97.72077938642141" r="8" fill="#2196F3"/></svg>